<svg xmlns="http://www.w3.org/2000/svg"><defs><pattern id="a" width="25" height="13" patternTransform="scale(4)" patternUnits="userSpaceOnUse"><rect width="100%" height="100%" fill="#ffffffff"/><path fill="none" stroke="#816f4314" stroke-width=".5" d="M15.044 22.25a2.5 2.5 0 0 1-2.5 2.5 2.5 2.5 0 0 1-2.5-2.5 2.5 2.5 0 0 1 2.5-2.5 2.5 2.5 0 0 1 2.5 2.5m2.5 0a5 5 0 0 1-5 5 5 5 0 0 1-5-5 5 5 0 0 1 5-5 5 5 0 0 1 5 5m2.5 0a7.5 7.5 0 0 1-7.5 7.5 7.5 7.5 0 0 1-7.5-7.5 7.5 7.5 0 0 1 7.5-7.5 7.5 7.5 0 0 1 7.5 7.5m2.5 0a10 10 0 0 1-10 10 10 10 0 0 1-10-10 10 10 0 0 1 10-10 10 10 0 0 1 10 10m2.5 0a12.5 12.5 0 0 1-12.5 12.5 12.5 12.5 0 0 1-12.5-12.5 12.5 12.5 0 0 1 12.5-12.5 12.5 12.5 0 0 1 12.5 12.5m0-9a2.5 2.5 0 0 0-2.363 1.688 12.5 12.5 0 0 1 1.672 3.212v.002a2.5 2.5 0 0 0 .69.098 2.5 2.5 0 0 0 2.5-2.5 2.5 2.5 0 0 0-2.5-2.5zm0-2.5a5 5 0 0 0-4.143 2.203 12.5 12.5 0 0 1 4.053 7.795l.09.002a5 5 0 0 0 5-5 5 5 0 0 0-5-5zm-.037-2.5a7.5 7.5 0 0 0-6.125 3.227 12.5 12.5 0 0 1 6.162 10.773 13 13 0 0 1-.041 1h.04a7.5 7.5 0 0 0 7.5-7.5 7.5 7.5 0 0 0-7.5-7.5zm.017-2.5a10 10 0 0 0-8.441 4.672 12.5 12.5 0 0 1 8.46 11.828 12.5 12.5 0 0 1-.495 3.488 10 10 0 0 0 .496.012 10 10 0 0 0 10-10 10 10 0 0 0-10-10zm.006-2.5a12.5 12.5 0 0 0-10.998 6.588l.29.039h.005l.29.045h.003a13 13 0 0 1 .58.113h.004a13 13 0 0 1 1.123.3l.02.007.006.002.277.093a13 13 0 0 1 .8.31l.032.01.033.016a13 13 0 0 1 .492.223l.016.008.004.002a13 13 0 0 1 .523.271l.006.002.254.143.004.002.252.15.004.002.248.156.004.002.244.16.004.002.24.168.004.002.236.174.004.002.233.18.004.002.228.183.004.002.223.19.004.002.218.195.032.03.185.173.004.002.209.205.004.004.205.21.002.001.2.215.003.004.193.219.004.003.19.223.004.004a13 13 0 0 1 .363.463l.004.004.172.236.004.004.166.24.002.004.162.244.002.004.156.248.03.05a13 13 0 0 1 .251.437l.016.029.01.02a13 13 0 0 1 .263.507l.002.004.125.266.002.004.118.267.002.004.113.272.002.004.105.273.002.004.098.275.002.004.092.278.002.003.086.282.002.004.078.28.002.005.072.285.002.004.067.285.023.121.035.17a13 13 0 0 1 .086.496l.014.09v.004l.039.29.008.075a13 13 0 0 1 .045.467l.003.05.002.04a13 13 0 0 1 .028.535v.023l.004.293v.014a12.5 12.5 0 0 1-.127 1.777 13 13 0 0 1-.1.586l-.058.291v.002a13 13 0 0 1-.141.576l-.08.287a13 13 0 0 1-.182.567 13 13 0 0 1-.207.557 13 13 0 0 1-.234.546 13 13 0 0 1-.26.536l-.1.187a13 13 0 0 0 1.488.088 12.5 12.5 0 0 0 12.5-12.5 12.5 12.5 0 0 0-12.5-12.5zm-24.986 10a2.5 2.5 0 0 0-2.5 2.5 2.5 2.5 0 0 0 2.5 2.5 2.5 2.5 0 0 0 .691-.098 12.5 12.5 0 0 1 1.672-3.214A2.5 2.5 0 0 0 .044 13.25zm0-2.5a5 5 0 0 0-5 5 5 5 0 0 0 5 5l.09-.002a12.5 12.5 0 0 1 4.054-7.795A5 5 0 0 0 .044 10.75zm-.037-2.5a7.5 7.5 0 0 0-7.463 7.5 7.5 7.5 0 0 0 7.5 7.5h.041a13 13 0 0 1-.041-1 12.5 12.5 0 0 1 6.162-10.773A7.5 7.5 0 0 0 .044 8.25zm.017-2.5a10 10 0 0 0-9.98 10 10 10 0 0 0 10 10 10 10 0 0 0 .498-.014 12.5 12.5 0 0 1-.498-3.486 12.5 12.5 0 0 1 8.46-11.828A10 10 0 0 0 .045 5.75zm-.082-2.5a12.5 12.5 0 0 0-12.486 12.5 12.5 12.5 0 0 0 12.5 12.5 13 13 0 0 0 1.57-.1 12.5 12.5 0 0 1-1.482-5.9 12.5 12.5 0 0 1 10.93-12.4A12.5 12.5 0 0 0-.044 3.25zm12.602 3.5a2.5 2.5 0 0 0-2.39 1.773 13 13 0 0 1 .82 1.327 13 13 0 0 1 1.57-.1 13 13 0 0 1 1.488.088 12.5 12.5 0 0 1 .875-1.399 2.5 2.5 0 0 0-2.363-1.689zm0-2.5a5 5 0 0 0-4.178 2.256 12.5 12.5 0 0 1 2.608 3.344 13 13 0 0 1 1.57-.1 13 13 0 0 1 1.488.088 12.5 12.5 0 0 1 2.658-3.383 5 5 0 0 0-4.146-2.205zm-.037-2.5a7.5 7.5 0 0 0-6.15 3.266 12.5 12.5 0 0 1 4.617 4.834 13 13 0 0 1 1.57-.1 13 13 0 0 1 1.488.088 12.5 12.5 0 0 1 4.676-4.861 7.5 7.5 0 0 0-6.164-3.227zm5.226 9.129.254.117zM12.524-.75a10 10 0 0 0-8.457 4.695 12.5 12.5 0 0 1 6.907 5.905 13 13 0 0 1 1.57-.1 13 13 0 0 1 1.488.088 12.5 12.5 0 0 1 6.973-5.916A10 10 0 0 0 12.544-.75zm5.21 11.629.253.117-.254-.117zM12.53-3.25a12.5 12.5 0 0 0-11.004 6.6 12.5 12.5 0 0 1 9.448 6.5 13 13 0 0 1 1.57-.1 13 13 0 0 1 1.488.088 12.5 12.5 0 0 1 9.526-6.498 12.5 12.5 0 0 0-11.014-6.59zm5.203 14.129.254.117zM25.043.25a2.5 2.5 0 0 0-2.362 1.688 12.5 12.5 0 0 1 .877 1.4 13 13 0 0 1 1.472-.088h.014a12.5 12.5 0 0 1 2.389.23 2.5 2.5 0 0 0 .11-.73 2.5 2.5 0 0 0-2.5-2.5zm0-2.5A5 5 0 0 0 20.9-.047a12.5 12.5 0 0 1 2.659 3.385 13 13 0 0 1 1.472-.088h.014a12.5 12.5 0 0 1 4.783.953 5 5 0 0 0 .217-1.453 5 5 0 0 0-5-5zm-.036-2.5a7.5 7.5 0 0 0-6.125 3.227 12.5 12.5 0 0 1 4.676 4.86 13 13 0 0 1 1.472-.087h.014a12.5 12.5 0 0 1 7.014 2.152 7.5 7.5 0 0 0 .486-2.652 7.5 7.5 0 0 0-7.5-7.5zm.017-2.5a10 10 0 0 0-8.441 4.672 12.5 12.5 0 0 1 6.975 5.916 13 13 0 0 1 1.472-.088h.014a12.5 12.5 0 0 1 9.01 3.838 10 10 0 0 0 .99-4.338 10 10 0 0 0-10-10zm.006-2.5a12.5 12.5 0 0 0-10.998 6.59 12.5 12.5 0 0 1 9.526 6.498 13 13 0 0 1 1.472-.088h.014a12.5 12.5 0 0 1 10.678 6 12.5 12.5 0 0 0 1.822-6.5 12.5 12.5 0 0 0-12.5-12.5zM14.69 8.75l-.128.197zm3.043 2.129.254.117zM.043.25a2.5 2.5 0 0 0-2.5 2.5 2.5 2.5 0 0 0 .106.717A12.5 12.5 0 0 1-.058 3.25h.014a13 13 0 0 1 1.57.1 12.5 12.5 0 0 1 .881-1.41A2.5 2.5 0 0 0 .044.25zm0-2.5a5 5 0 0 0-5 5 5 5 0 0 0 .208 1.42 12.5 12.5 0 0 1 4.691-.92h.014a13 13 0 0 1 1.57.1A12.5 12.5 0 0 1 4.19-.045 5 5 0 0 0 .044-2.25zm-.036-2.5a7.5 7.5 0 0 0-7.463 7.5 7.5 7.5 0 0 0 .469 2.605A12.5 12.5 0 0 1-.057 3.25h.013a13 13 0 0 1 1.57.1 12.5 12.5 0 0 1 4.682-4.873A7.5 7.5 0 0 0 .044-4.75zm.017-2.5a10 10 0 0 0-9.98 10 10 10 0 0 0 .96 4.275A12.5 12.5 0 0 1-.057 3.25h.014a13 13 0 0 1 1.57.1 12.5 12.5 0 0 1 6.979-5.928A10 10 0 0 0 .044-7.25zm.006-2.5a12.5 12.5 0 0 0-12.486 12.5 12.5 12.5 0 0 0 1.78 6.428A12.5 12.5 0 0 1-.059 3.25h.014a13 13 0 0 1 1.57.1 12.5 12.5 0 0 1 9.532-6.51A12.5 12.5 0 0 0 .044-9.75zM9.722 7.951l.12.154z"/></pattern></defs><rect width="800%" height="800%" fill="url(#a)"/></svg>