<svg width="454" height="152" viewBox="0 0 454 152" fill="none" xmlns="http://www.w3.org/2000/svg">
<path d="M137.322 130.777C132.586 130.168 130.219 127.934 130.219 123.875C130.219 119.817 133.129 117.447 137.322 116.976C142.059 117.584 144.427 119.817 144.427 123.809C144.427 127.868 141.516 130.301 137.322 130.777Z" fill="#2B2A29"/>
<path d="M198.585 127.081C197.3 129.45 196.894 130.398 196.894 146.294V146.699C196.894 146.699 191.55 148.796 182.622 148.796C167.806 148.796 156.846 141.828 156.846 125.322C156.846 107.598 166.52 99.6827 183.162 99.6827C192.699 99.6827 196.691 101.645 196.691 101.645C196.691 101.645 196.558 103.066 196.558 107.261C196.558 110.846 196.691 113.213 196.691 113.213C193.513 108.679 190.67 106.787 184.446 106.787C175.517 106.787 169.293 111.454 169.293 124.781C169.293 135.807 172.676 142.032 182.89 142.032C184.649 142.032 185.598 141.828 185.598 141.828C185.598 131.951 185.258 129.45 183.904 127.081L183.229 125.93C183.229 125.93 185.732 126.067 191.146 126.067C197.03 126.067 199.194 125.93 199.194 125.93L198.585 127.081Z" fill="#2B2A29"/>
<path d="M223.146 148.256C217.395 148.256 214.892 148.389 214.892 148.389L215.501 147.241C216.855 144.671 217.191 144.196 217.191 123.902C217.191 104.216 216.921 103.945 215.501 101.24L214.892 100.089C214.892 100.089 217.191 100.224 223.078 100.224C229.232 100.224 231.331 100.089 231.331 100.089L230.722 101.24C229.368 103.811 229.032 104.285 229.032 124.58C229.032 144.265 229.3 144.535 230.722 147.241L231.331 148.389C231.331 148.389 228.895 148.256 223.146 148.256Z" fill="#2B2A29"/>
<path d="M291.944 101.24C290.661 103.608 290.254 104.285 290.254 124.578V148.393C290.254 148.393 288.36 148.256 284.165 148.256C279.631 148.256 276.115 148.393 276.115 148.393L260.625 116.054C259.475 113.618 258.798 111.049 258.731 110.846V124.578C258.731 144.265 258.999 144.537 260.42 147.241L261.03 148.393C261.03 148.393 258.999 148.256 254.536 148.256C249.799 148.256 247.906 148.393 247.906 148.393L248.513 147.241C249.73 144.873 250.206 144.196 250.206 123.902C250.206 104.216 249.936 103.945 248.513 101.24L247.906 100.087C247.906 100.087 250.407 100.224 256.567 100.224C261.705 100.224 264.345 100.087 264.345 100.087L279.837 132.358C281.054 134.927 281.597 137.162 281.73 137.567V123.902C281.73 104.216 281.46 103.945 280.04 101.24L279.431 100.087C279.431 100.087 281.46 100.224 285.924 100.224C290.661 100.224 292.553 100.087 292.553 100.087L291.944 101.24Z" fill="#2B2A29"/>
<path d="M309.084 130.777C304.347 130.168 301.98 127.934 301.98 123.875C301.98 119.817 304.887 117.447 309.084 116.976C313.818 117.584 316.187 119.817 316.187 123.809C316.187 127.868 313.277 130.301 309.084 130.777Z" fill="#2B2A29"/>
<path d="M49.6318 15.2381L35.8345 30.6645L50.686 51.9444C59.4132 64.4853 62.0009 66.9767 64.6834 68.4139C64.6834 68.4139 62.0009 68.3273 52.6116 68.3273H42.0626L20.0249 34.9838C20.0249 61.6128 20.4094 62.9609 22.4206 66.7938L23.2839 68.4139C23.2839 68.4139 19.8345 68.2309 11.6898 68.2309C3.54578 68.2309 0 68.4139 0 68.4139L0.854756 66.7938C2.78027 63.1534 3.25938 62.4822 3.25938 33.73C3.25938 5.84927 2.87591 5.46615 0.854756 1.63326L0 0.00357803C0 0.00357803 3.25938 0.186507 11.5941 0.186507C20.3138 0.186507 23.2839 0.00357803 23.2839 0.00357803L22.4206 1.63326C20.6004 5.08268 20.0249 6.23167 20.0249 34.0183L34.9728 15.0475C39.8599 9.01033 41.5838 6.51984 41.5838 3.74029C41.5838 2.30295 41.0084 0.954511 39.5803 0.00357803C39.5803 0.00357803 43.0212 0.186507 51.8441 0.186507C61.618 0.186507 64.8754 0.00357803 64.8754 0.00357803C62.6706 1.44073 58.638 4.97744 49.6318 15.2381Z" fill="#2B2A29"/>
<path fill-rule="evenodd" clip-rule="evenodd" d="M11.6201 63.1209V63.1807L11 35.6146L11.6201 8.10826L12.2402 35.6146L11.6201 63.1209Z" fill="#C6A65D"/>
<path fill-rule="evenodd" clip-rule="evenodd" d="M50.658 65.4513L50.6799 65.4818L40.0771 51.7679L30.5038 37.3615L41.0847 51.0449L50.658 65.4513Z" fill="#C6A65D"/>
<path fill-rule="evenodd" clip-rule="evenodd" d="M54.6395 3.44364L54.6647 3.41575L42.5897 15.8531L31.4601 29.094L43.5098 16.6846L54.6395 3.44364Z" fill="#C6A65D"/>
<path d="M108.563 11.9806C107.508 7.85175 107.125 5.64909 107.02 4.97744C106.933 5.46615 106.637 7.46935 105.488 11.9806L99.6521 35.3687H114.406L108.563 11.9806ZM130.215 68.2309C123.222 68.2309 117.463 68.4139 117.463 68.4139C118.717 67.5613 120.54 65.9225 120.54 62.3879C120.54 59.408 119.284 54.7129 117.848 49.0699L116.793 45.0354H97.2478L96.1931 49.0699C94.7557 54.7129 93.4238 59.408 93.4238 62.3879C93.4238 65.9225 95.2446 67.5613 96.4798 68.4139C96.4798 68.4139 92.0738 68.2309 85.6537 68.2309C79.0425 68.2309 75.3063 68.4139 75.3063 68.4139C78.8521 64.9735 80.576 59.0245 84.4176 45.7065L95.7143 5.75237C96.0101 4.59486 96.2983 3.45352 96.2983 2.20872C96.2983 0.954502 95.8105 0.386507 95.6276 0.186507H123.891C123.891 0.283218 123.308 0.865791 123.308 2.20872C123.308 3.45352 123.508 4.59486 123.797 5.75237L134.24 45.7065C137.784 59.1214 139.414 64.9735 142.958 68.4139C142.958 68.4139 137.881 68.2309 130.215 68.2309Z" fill="#2B2A29"/>
<path fill-rule="evenodd" clip-rule="evenodd" d="M85.6144 62.2986L85.599 62.3564L92.1346 35.5691L99.8528 9.1605L93.3326 35.89L85.6144 62.2986Z" fill="#C6A65D"/>
<path fill-rule="evenodd" clip-rule="evenodd" d="M129.943 62.5208L129.959 62.5786L122.225 36.1122L115.705 9.3827L123.423 35.7913L129.943 62.5208Z" fill="#C6A65D"/>
<path d="M207.438 14.6596C207.342 14.5648 206.766 13.6062 204.084 11.9771C201.793 10.6361 198.153 9.58186 193.639 9.58186H188.465V34.6935C188.465 62.5744 188.848 62.9593 190.861 66.7902L191.722 68.4196C191.722 68.4196 188.275 68.2276 180.13 68.2276C171.986 68.2276 168.432 68.4196 168.432 68.4196L169.302 66.7902C171.22 63.1499 171.69 62.48 171.69 33.7259V9.58186H166.525C162.012 9.58186 158.372 10.6361 156.08 11.9771C153.581 13.5106 152.814 14.478 152.728 14.6596C152.728 14.5648 152.912 11.8903 152.912 6.89991C152.912 2.20462 152.815 0.0956416 152.815 0.0956416H207.342C207.342 0.0956416 207.253 2.20462 207.253 6.89991C207.253 11.8903 207.438 14.478 207.438 14.6596Z" fill="#2B2A29"/>
<path fill-rule="evenodd" clip-rule="evenodd" d="M180.62 63.0126V63.0724L180 35.5063L180.62 7.99999L181.24 35.5063L180.62 63.0126Z" fill="#C6A65D"/>
<path d="M249.593 11.9806C248.539 7.85175 248.156 5.64909 248.052 4.97744C247.966 5.46615 247.67 7.46935 246.519 11.9806L240.683 35.3687H255.438L249.593 11.9806ZM271.248 68.2309C264.252 68.2309 258.497 68.4139 258.497 68.4139C259.75 67.5613 261.57 65.9225 261.57 62.3879C261.57 59.408 260.316 54.7129 258.879 49.0699L257.825 45.0354H238.279L237.224 49.0699C235.789 54.7129 234.455 59.408 234.455 62.3879C234.455 65.9225 236.275 67.5613 237.513 68.4139C237.513 68.4139 233.105 68.2309 226.686 68.2309C220.075 68.2309 216.337 68.4139 216.337 68.4139C219.883 64.9735 221.607 59.0245 225.449 45.7065L236.747 5.75237C237.042 4.59486 237.33 3.45352 237.33 2.20872C237.33 0.954502 236.841 0.386507 236.658 0.186507H264.924C264.924 0.283218 264.341 0.865791 264.341 2.20872C264.341 3.45352 264.541 4.59486 264.827 5.75237L275.271 45.7065C278.817 59.1214 280.445 64.9735 283.991 68.4139C283.991 68.4139 278.911 68.2309 271.248 68.2309Z" fill="#2B2A29"/>
<path d="M364.767 1.62969C362.945 4.98347 362.372 5.94135 362.372 34.6935V68.4196C362.372 68.4196 359.688 68.2276 353.739 68.2276C347.318 68.2276 342.346 68.4196 342.346 68.4196L320.396 22.611C318.768 19.1707 317.809 15.5303 317.714 15.2345V34.6935C317.714 62.5744 318.096 62.9573 320.108 66.7902L320.971 68.4196C320.971 68.4196 318.096 68.2276 311.772 68.2276C305.066 68.2276 302.383 68.4196 302.383 68.4196L303.245 66.7902C304.971 63.4366 305.64 62.4786 305.64 33.7355C305.64 5.84516 305.257 5.46063 303.245 1.62969L302.383 1.88433e-06C302.383 1.88433e-06 305.929 0.192547 314.647 0.192547C321.929 0.192547 325.665 1.88433e-06 325.665 1.88433e-06L347.607 45.71C349.34 49.3531 350.098 52.5143 350.298 53.0892V33.7355C350.298 5.84516 349.915 5.46063 347.895 1.62969L347.041 1.88433e-06C347.041 1.88433e-06 349.915 0.192547 356.239 0.192547C362.945 0.192547 365.628 1.88433e-06 365.628 1.88433e-06L364.767 1.62969Z" fill="#2B2A29"/>
<path fill-rule="evenodd" clip-rule="evenodd" d="M310.62 61.0126V61.0724L310 33.5063L310.62 5.99999L311.24 33.5063L310.62 61.0126Z" fill="#C6A65D"/>
<path fill-rule="evenodd" clip-rule="evenodd" d="M356.62 61.0126V61.0724L356 33.5063L356.62 5.99999L357.24 33.5063L356.62 61.0126Z" fill="#C6A65D"/>
<path fill-rule="evenodd" clip-rule="evenodd" d="M345.864 57.625L345.89 57.6786L333.154 33.2234L321.556 8.27395L334.266 32.6755L345.864 57.625Z" fill="#C6A65D"/>
<path d="M416.117 11.9806C415.063 7.85175 414.68 5.64909 414.576 4.97744C414.49 5.46615 414.193 7.46935 413.043 11.9806L407.207 35.3687H421.963L416.117 11.9806ZM437.772 68.2309C430.776 68.2309 425.02 68.4139 425.02 68.4139C426.274 67.5613 428.094 65.9245 428.094 62.3879C428.094 59.408 426.84 54.7129 425.403 49.0699L424.349 45.0368H404.802L403.748 49.0699C402.313 54.7129 400.979 59.408 400.979 62.3879C400.979 65.9245 402.799 67.5613 404.037 68.4139C404.037 68.4139 399.629 68.2309 393.21 68.2309C386.599 68.2309 382.861 68.4139 382.861 68.4139C386.407 64.9735 388.131 59.0245 391.973 45.7065L403.271 5.75237C403.567 4.59486 403.854 3.45352 403.854 2.20872C403.854 0.954502 403.365 0.388463 403.182 0.186507H431.448C431.448 0.283218 430.865 0.867746 430.865 2.20872C430.865 3.45352 431.065 4.59486 431.351 5.75237L441.796 45.7065C445.341 59.1214 446.969 64.9735 450.515 68.4139C450.515 68.4139 445.435 68.2309 437.772 68.2309Z" fill="#2B2A29"/>
<path fill-rule="evenodd" clip-rule="evenodd" d="M226.308 62.1121L226.293 62.1699L232.828 35.3826L240.546 8.97401L234.026 35.7036L226.308 62.1121Z" fill="#C6A65D"/>
<path fill-rule="evenodd" clip-rule="evenodd" d="M270.637 62.3343L270.652 62.3921L262.919 35.9257L256.398 9.19618L264.117 35.6047L270.637 62.3343Z" fill="#C6A65D"/>
<path fill-rule="evenodd" clip-rule="evenodd" d="M393.308 62.1121L393.293 62.1699L399.828 35.3826L407.546 8.97401L401.026 35.7036L393.308 62.1121Z" fill="#C6A65D"/>
<path fill-rule="evenodd" clip-rule="evenodd" d="M437.637 62.3343L437.652 62.3921L429.919 35.9257L423.398 9.19618L431.117 35.6047L437.637 62.3343Z" fill="#C6A65D"/>
<path d="M201.585 130.081C200.3 132.45 199.895 133.398 199.895 149.294V149.699C199.895 149.699 194.55 151.797 185.622 151.797C176.891 151.797 169.501 149.376 164.902 144.011C169.51 147.98 176.063 149.797 183.622 149.797C192.55 149.797 197.895 147.699 197.895 147.699V147.294C197.895 133.595 198.197 130.998 199.103 129.025C201.301 128.985 202.194 128.931 202.194 128.931L201.585 130.081ZM261.731 119.451V127.578C261.731 147.264 261.999 147.536 263.42 150.24L264.03 151.394C264.03 151.394 261.999 151.256 257.536 151.256C252.799 151.256 250.906 151.394 250.906 151.394L251.513 150.24C251.683 149.909 251.837 149.61 251.979 149.287C252.919 149.269 254.096 149.256 255.536 149.256C259.999 149.256 262.03 149.394 262.03 149.394L261.42 148.24C259.999 145.536 259.731 145.264 259.731 125.578V115.276L261.731 119.451ZM294.944 104.24C293.661 106.608 293.254 107.286 293.254 127.578V151.394C293.244 151.393 291.349 151.256 287.165 151.256C282.644 151.256 279.134 151.393 279.115 151.394L278.143 149.362C279.507 149.322 282.104 149.256 285.165 149.256C289.347 149.256 291.242 149.393 291.254 149.394V125.578C291.254 108.123 291.555 105.181 292.456 103.192C294.606 103.153 295.534 103.089 295.553 103.088L294.944 104.24ZM233.723 104.24C232.369 106.811 232.032 107.286 232.032 127.58C232.032 147.265 232.3 147.535 233.723 150.241L234.331 151.39C234.317 151.389 231.879 151.256 226.146 151.256C220.434 151.256 217.926 151.388 217.893 151.39L218.501 150.241C218.676 149.908 218.834 149.609 218.977 149.299C220.262 149.275 221.972 149.256 224.146 149.256C229.878 149.256 232.317 149.389 232.331 149.39L231.723 148.24C230.3 145.534 230.032 145.264 230.032 125.58C230.032 107.921 230.287 105.269 231.245 103.184C233.459 103.144 234.32 103.091 234.331 103.09L233.723 104.24ZM185.445 107.787C189.47 107.787 192.081 108.579 194.283 110.364C194.616 110.761 194.946 111.186 195.278 111.64C193.28 110.364 190.877 109.787 187.445 109.787C178.517 109.787 172.293 114.454 172.293 127.781C172.293 132.649 172.953 136.58 174.568 139.454C174.147 139.225 173.749 138.971 173.375 138.693C171.17 135.757 170.293 131.391 170.293 125.781C170.293 112.454 176.517 107.787 185.445 107.787ZM144.585 121.313C146.479 122.465 147.427 124.284 147.427 126.809C147.427 130.868 144.515 133.301 140.321 133.776C137.225 133.378 135.142 132.285 134.07 130.441C135.169 131.111 136.586 131.553 138.321 131.776C142.515 131.301 145.427 128.868 145.427 124.809C145.427 123.437 145.144 122.275 144.585 121.313ZM316.345 121.312C318.239 122.464 319.187 124.284 319.188 126.809C319.188 130.868 316.277 133.301 312.084 133.776C308.987 133.378 306.903 132.285 305.831 130.441C306.931 131.111 308.348 131.553 310.084 131.776C314.277 131.301 317.188 128.868 317.188 124.809C317.187 123.437 316.905 122.274 316.345 121.312ZM280.73 130.97V133.136L266.322 103.125C267.002 103.102 267.345 103.088 267.345 103.088L280.73 130.97ZM197.622 103.942C199.027 104.323 199.683 104.64 199.691 104.645C199.691 104.645 199.558 106.066 199.558 110.261C199.558 113.833 199.69 116.197 199.691 116.213C199.014 115.247 198.352 114.401 197.669 113.668C197.63 112.772 197.558 110.829 197.558 108.261C197.558 106.212 197.589 104.826 197.622 103.942ZM195.669 111.668C195.873 111.887 196.074 112.119 196.275 112.358C196.08 112.2 195.881 112.049 195.679 111.906C195.676 111.838 195.673 111.758 195.669 111.668ZM210.342 3.0957C210.341 3.10914 210.253 5.2201 210.253 9.90039C210.253 14.8871 210.437 17.4745 210.438 17.6592C210.341 17.5629 209.764 16.6051 207.084 14.9775C204.793 13.6366 201.152 12.582 196.639 12.582H191.466V37.6934C191.466 65.5737 191.848 65.9593 193.86 69.79L194.723 71.4199C194.723 71.4199 191.274 71.2275 183.13 71.2275C175.027 71.2275 171.468 71.418 171.433 71.4199L172.302 69.79C172.388 69.6273 172.47 69.4701 172.55 69.3164C174.458 69.2711 177.281 69.2275 181.13 69.2275C189.274 69.2275 192.723 69.4199 192.723 69.4199L191.86 67.79C189.848 63.9593 189.466 63.5737 189.466 35.6934V10.582H194.639C199.152 10.582 202.793 11.6366 205.084 12.9775C207.764 14.6051 208.341 15.5629 208.438 15.6592C208.437 15.4745 208.253 12.8871 208.253 7.90039C208.253 5.7916 208.272 4.20444 208.292 3.0957H210.342ZM318.714 20.0684C318.926 20.5789 319.153 21.0979 319.396 21.6113L320.714 24.3623V37.6934C320.714 65.574 321.096 65.9572 323.108 69.79L323.971 71.4199C323.971 71.4199 321.096 71.2275 314.772 71.2275C308.067 71.2275 305.383 71.4199 305.383 71.4199L306.245 69.79C306.332 69.6214 306.415 69.4582 306.496 69.2979C307.983 69.2601 310.045 69.2275 312.772 69.2275C319.096 69.2275 321.971 69.4199 321.971 69.4199L321.108 67.79C319.096 63.9572 318.714 63.574 318.714 35.6934V20.0684ZM367.767 4.62988C365.945 7.98347 365.371 8.94198 365.371 37.6934V71.4199C365.332 71.4172 362.644 71.2275 356.738 71.2275C350.318 71.2275 345.346 71.4199 345.346 71.4199L344.37 69.3848C346.146 69.3294 350.057 69.2275 354.738 69.2275C360.643 69.2275 363.332 69.4171 363.371 69.4199V35.6934C363.371 8.38942 363.889 6.15048 365.501 3.12207C367.68 3.06688 368.629 3 368.629 3L367.767 4.62988ZM23.0264 40.0381C23.047 64.6856 23.4627 66.0621 25.4209 69.7939L26.2842 71.4141C26.2842 71.4141 22.8342 71.2305 14.6895 71.2305C6.54568 71.2305 3 71.4141 3 71.4141L3.85449 69.7939C3.94141 69.6296 4.02436 69.4705 4.10547 69.3154C6.01143 69.2721 8.83557 69.2305 12.6895 69.2305C20.8342 69.2305 24.2842 69.4141 24.2842 69.4141L23.4209 67.7939C21.4359 64.0109 21.0355 62.6483 21.0254 37.0107L23.0264 40.0381ZM53.6113 69.3271C60.2869 69.3271 63.5725 69.3711 64.9141 69.3965C65.9664 70.3782 66.8198 70.9513 67.6836 71.4141C67.6836 71.4141 65.0007 71.3271 55.6113 71.3271H45.0625L43.7402 69.3271H53.6113ZM116.315 46.0352L116.839 48.0352H100.248L99.1934 52.0703C97.7561 57.713 96.4239 62.4078 96.4238 65.3877C96.4238 68.9222 98.2443 70.5614 99.4795 71.4141C99.4385 71.4124 95.0434 71.2305 88.6533 71.2305C82.0796 71.2305 78.3485 71.412 78.3066 71.4141C78.9408 70.7987 79.5145 70.1015 80.0547 69.2979C81.7365 69.2617 83.9555 69.2305 86.6533 69.2305C93.0434 69.2305 97.4386 69.4124 97.4795 69.4141C96.2443 68.5614 94.4238 66.9222 94.4238 63.3877C94.4239 60.4078 95.7561 55.713 97.1934 50.0703L98.248 46.0352H116.315ZM126.891 3.18652C126.891 3.28329 126.309 3.86614 126.309 5.20898C126.309 6.45357 126.509 7.59463 126.797 8.75195L137.24 48.7061C140.784 62.1209 142.413 67.9737 145.958 71.4141C145.91 71.4123 140.844 71.2305 133.215 71.2305C126.221 71.2305 120.463 71.4141 120.463 71.4141C121.109 70.9746 121.905 70.3253 122.526 69.3164C124.811 69.2726 127.872 69.2305 131.215 69.2305C138.844 69.2305 143.91 69.4123 143.958 69.4141C140.413 65.9737 138.784 60.1209 135.24 46.7061L124.797 6.75195C124.509 5.59463 124.309 4.45357 124.309 3.20898C124.309 3.20147 124.31 3.19399 124.31 3.18652H126.891ZM257.347 46.0352L257.87 48.0352H241.278L240.224 52.0703C238.789 57.713 237.455 62.4079 237.455 65.3877C237.455 68.9223 239.275 70.5614 240.513 71.4141C240.513 71.4141 236.105 71.2305 229.686 71.2305C223.105 71.2305 219.371 71.4124 219.337 71.4141C219.971 70.7987 220.545 70.1015 221.085 69.2979C222.767 69.2616 224.987 69.2305 227.686 69.2305C234.105 69.2305 238.513 69.4141 238.513 69.4141C237.275 68.5614 235.455 66.9223 235.455 63.3877C235.455 60.4079 236.789 55.713 238.224 50.0703L239.278 46.0352H257.347ZM267.924 3.18652C267.924 3.28329 267.341 3.86614 267.341 5.20898C267.341 6.45353 267.541 7.59467 267.827 8.75195L278.271 48.7061C281.818 62.121 283.445 67.9737 286.991 71.4141C286.991 71.4141 281.911 71.2305 274.248 71.2305C267.252 71.2305 261.496 71.4141 261.496 71.4141C262.142 70.9746 262.938 70.3255 263.559 69.3164C265.843 69.2726 268.904 69.2305 272.248 69.2305C279.869 69.2305 284.934 69.4121 284.99 69.4141C281.445 65.9737 279.818 60.1208 276.271 46.7061L265.827 6.75195C265.541 5.59467 265.341 4.45353 265.341 3.20898C265.341 3.20147 265.342 3.19399 265.342 3.18652H267.924ZM423.872 46.0371L424.395 48.0371H407.803L406.748 52.0703C405.312 57.713 403.98 62.4079 403.979 65.3877C403.979 68.924 405.798 70.5614 407.036 71.4141C406.985 71.412 402.592 71.2305 396.21 71.2305C389.599 71.2305 385.86 71.4141 385.86 71.4141C386.495 70.7985 387.069 70.1009 387.609 69.2969C389.292 69.2607 391.512 69.2305 394.21 69.2305C400.592 69.2305 404.985 69.4119 405.036 69.4141C403.798 68.5614 401.979 66.924 401.979 63.3877C401.98 60.4079 403.312 55.713 404.748 50.0703L405.803 46.0371H423.872ZM434.447 3.18652C434.447 3.28329 433.865 3.86809 433.865 5.20898C433.865 6.45355 434.065 7.59465 434.352 8.75195L444.796 48.7061C448.341 62.121 449.969 67.9737 453.516 71.4141C453.516 71.4141 448.435 71.2305 440.772 71.2305C433.777 71.2305 428.02 71.4141 428.02 71.4141C428.666 70.9745 429.462 70.3255 430.082 69.3164C432.367 69.2726 435.428 69.2305 438.772 69.2305C446.435 69.2305 451.516 69.4141 451.516 69.4141C447.969 65.9737 446.341 60.121 442.796 46.7061L432.352 6.75195C432.065 5.59465 431.865 4.45355 431.865 3.20898C431.865 3.20147 431.866 3.19399 431.866 3.18652H434.447ZM63 67.3984C63.1142 67.5286 63.2262 67.6545 63.3359 67.7764C63.1989 67.6566 63.058 67.5308 62.9141 67.3965C62.9437 67.397 62.9723 67.3979 63 67.3984ZM67.875 3.00391C65.6701 4.44123 61.6375 7.9783 52.6318 18.2383L38.835 33.6641L53.6865 54.9443C57.5654 60.5184 60.2318 64.1068 62.2324 66.5C61.9482 66.2909 61.6533 66.0561 61.3428 65.7852C59.2363 63.4478 56.3314 59.6191 51.6865 52.9443L36.835 31.6641L50.6318 16.2383C56.8021 9.20861 60.6375 5.33457 63.1504 3.12988C66.5403 3.07665 67.8492 3.00534 67.875 3.00391ZM349.298 45.9834V48.2549C349.087 47.7544 348.857 47.2369 348.606 46.71L327.645 3.04004C328.313 3.01583 328.655 3.00053 328.665 3L349.298 45.9834ZM415.117 10.9805L416.079 14.832C416.067 14.8811 416.056 14.9308 416.043 14.9805L411.205 34.3691H408.706L414.043 12.9805C414.363 11.727 414.615 10.6668 414.816 9.7793C414.91 10.16 415.01 10.5603 415.117 10.9805ZM248.593 10.9805L249.555 14.832C249.542 14.8811 249.531 14.9308 249.519 14.9805L244.681 34.3691H242.182L247.519 12.9805C247.838 11.7266 248.09 10.666 248.292 9.77832C248.386 10.1593 248.485 10.56 248.593 10.9805ZM107.562 10.9805L108.524 14.832C108.512 14.8811 108.501 14.9308 108.488 14.9805L103.65 34.3691H101.151L106.488 12.9805C106.808 11.7252 107.059 10.6637 107.261 9.77539C107.355 10.1572 107.455 10.5589 107.562 10.9805ZM25.4209 4.63281C23.8249 7.65716 23.185 8.91355 23.0518 27.9053L21.0312 30.4707C21.0927 8.2532 21.6469 6.05836 23.1738 3.10547C25.3981 3.05594 26.2842 3.00391 26.2842 3.00391L25.4209 4.63281ZM170.69 10.582V12.582H169.525C165.012 12.582 161.372 13.6366 159.08 14.9775C156.583 16.5097 155.815 17.4765 155.729 17.6592C155.729 17.5885 155.816 16.2603 155.87 13.7646C156.219 13.5223 156.62 13.2596 157.08 12.9775C159.372 11.6366 163.012 10.582 167.525 10.582H170.69Z" fill="#C6A65D"/>
</svg>
